<svg enable-background="new 0 0 512 512" viewBox="0 0 512 512" xmlns="http://www.w3.org/2000/svg"><path d="m51.6 72.608 199.566-34.825 213.114 34.825c19.867 0 32.553 21.19 23.171 38.701l-206.224 384.92c-9.908 18.492-36.421 18.499-46.337.011l-206.455-384.92c-9.393-17.512 3.293-38.712 23.165-38.712z" fill="#fecb21"/><path d="m270.254 307.902c0 28.665-23.238 51.902-51.902 51.902s-51.902-23.237-51.902-51.902 23.237-51.902 51.902-51.902 51.902 23.237 51.902 51.902zm65.862 81.954c-25.323-13.433-56.74-3.794-70.173 21.528-13.433 25.323-3.794 56.74 21.528 70.173m48.645-342.08c-28.665 0-51.902 23.237-51.902 51.902s23.237 51.902 51.902 51.902 51.902-23.237 51.902-51.902-23.237-51.902-51.902-51.902zm-182.102-33.763c-28.665 0-51.902 23.237-51.902 51.902s23.237 51.902 51.902 51.902 51.902-23.237 51.902-51.902-23.237-51.902-51.902-51.902z" fill="#f43b22"/><path d="m41.204 130.519c-13.328.001-26.256-7.039-33.184-19.518-10.167-18.308-3.566-41.391 14.743-51.557 34.605-19.215 72.08-34.048 111.383-44.088 39.334-10.047 80.138-15.214 121.279-15.356 40.982-.14 81.845 4.711 121.369 14.423 40.306 9.904 78.8 24.757 114.412 44.147 18.393 10.014 25.184 33.041 15.17 51.433-10.014 18.391-33.043 25.185-51.433 15.169-29.887-16.273-62.269-28.757-96.246-37.105-33.046-8.12-67.199-12.236-101.53-12.236-.496 0-.986.001-1.481.002-34.903.121-69.481 4.494-102.772 12.998-33.009 8.432-64.412 20.851-93.338 36.912-5.829 3.239-12.145 4.776-18.372 4.776z" fill="#c4790c"/></svg>