<svg xmlns="http://www.w3.org/2000/svg" xmlns:xlink="http://www.w3.org/1999/xlink" width="6912" zoomAndPan="magnify" viewBox="0 0 5184 503.999982" height="672" preserveAspectRatio="xMidYMid meet" version="1.0"><path stroke-linecap="butt" transform="matrix(0.75, 0, 0, 0.75, 0.0000910286, -0.0000308331)" fill="none" stroke-linejoin="miter" d="M -0.000121371 24.500043 L 6912.000409 24.500043 " stroke="#000000" stroke-width="49" stroke-opacity="1" stroke-miterlimit="4"/><path stroke-linecap="butt" transform="matrix(0.75, 0, 0, 0.75, 0.0000910286, 91.822143)" fill="none" stroke-linejoin="miter" d="M -0.000121371 24.497562 L 6912.000409 24.497562 " stroke="#000000" stroke-width="49" stroke-opacity="1" stroke-miterlimit="4"/><path stroke-linecap="butt" transform="matrix(0.75, 0, 0, 0.75, 0.0000910286, 182.523706)" fill="none" stroke-linejoin="miter" d="M -0.000121371 24.499644 L 6912.000409 24.499644 " stroke="#000000" stroke-width="49" stroke-opacity="1" stroke-miterlimit="4"/><path stroke-linecap="butt" transform="matrix(0.75, 0, 0, 0.75, 0.0000910286, 273.225301)" fill="none" stroke-linejoin="miter" d="M -0.000121371 24.501684 L 6912.000409 24.501684 " stroke="#000000" stroke-width="49" stroke-opacity="1" stroke-miterlimit="4"/><path stroke-linecap="butt" transform="matrix(0.75, 0, 0, 0.75, 0.0000910286, 365.047472)" fill="none" stroke-linejoin="miter" d="M -0.000121371 24.499206 L 6912.000409 24.499206 " stroke="#000000" stroke-width="49" stroke-opacity="1" stroke-miterlimit="4"/><path stroke-linecap="butt" transform="matrix(0.75, 0, 0, 0.75, 0.0000910286, 455.748997)" fill="none" stroke-linejoin="miter" d="M -0.000121371 24.501339 L 6912.000409 24.501339 " stroke="#000000" stroke-width="49" stroke-opacity="1" stroke-miterlimit="4"/></svg>